<svg height="496pt" viewBox="0 -54 496.17935 496" width="496pt" xmlns="http://www.w3.org/2000/svg"><path d="m103.9375 380.058594c5.277344.738281 10.59375 1.113281 15.921875 1.121094h252c15.089844.042968 30.042969-2.894532 44-8.640626 47.363281-19.433593 76.398437-67.609374 71.457031-118.566406-4.9375-50.957031-42.683594-92.65625-92.898437-102.632812-9.328125-57.613282-61.332031-98.402344-119.507813-93.742188-58.175781 4.664063-103.019531 53.21875-103.050781 111.582032v.800781c-39.488281-20.675781-87.480469-15.964844-122.195313 11.992187-34.714843 27.957032-49.550781 73.839844-37.769531 116.828125 11.777344 42.988281 47.925781 74.902344 92.042969 81.257813zm0 0" fill="#57a4ff"/><path d="m468.660156 187.820312c21.796875-17.964843 31.761719-46.585937 25.835938-74.203124-5.921875-27.621094-26.75-49.632813-53.996094-57.078126-4.550781-19.34375-16.804688-35.988281-33.921875-46.078124-19.238281-11.445313-42.636719-13.535157-63.597656-5.683594-20.796875 7.527344-36.855469 24.382812-43.363281 45.523437-5.222657-.699219-10.488282-1.074219-15.757813-1.121093-18.015625-.042969-35.800781 4.035156-52 11.917968-37.828125 18.210938-63.402344 54.851563-67.441406 96.640625-42.96875-17.121093-91.953125-8.019531-125.910157 23.390625-33.953124 31.410156-46.828124 79.542969-33.097656 123.710938 13.734375 44.171875 51.628906 76.515625 97.410156 83.140625 5.644532.789062 11.335938 1.191406 17.039063 1.199219h252c16.140625.054687 32.128906-3.101563 47.039063-9.28125 36.105468-14.835938 63.121093-45.808594 72.910156-83.597657 9.789062-37.789062 1.210937-77.980469-23.148438-108.480469zm-120.402344-168c16.527344-6.179687 34.960938-4.5625 50.160157 4.398438 14.667969 8.621094 24.703125 23.355469 27.359375 40.160156.546875 3.3125 3.101562 5.933594 6.402344 6.558594 22.75 4.515625 40.816406 21.820312 46.308593 44.355469 5.492188 22.535156-2.585937 46.210937-20.710937 60.6875-15.691406-15.289063-35.195313-26.089844-56.480469-31.28125-8.972656-44.292969-42.257813-79.6875-85.917969-91.359375 5.378906-15.539063 17.449219-27.84375 32.878906-33.519532zm64.5625 345.359376c-13 5.320312-26.917968 8.039062-40.960937 8h-252c-43.226563.042968-81.972656-26.652344-97.324219-67.0625-15.351562-40.40625-4.113281-86.09375 28.234375-114.765626 32.347657-28.671874 79.058594-34.347656 117.328125-14.253906 2.488282 1.328125 5.492188 1.246094 7.90625-.214844 2.410156-1.460937 3.875-4.082031 3.855469-6.902343v-.800781c.105469-54.136719 41.726563-99.140626 95.691406-103.464844 53.964844-4.324219 102.222657 33.472656 110.949219 86.90625.542969 3.3125 3.101562 5.929687 6.398438 6.558594 46.742187 9.324218 81.863281 48.160156 86.449218 95.601562 4.589844 47.445312-22.4375 92.292969-66.527344 110.398438zm0 0" fill="#004fac"/></svg>
