<svg height="495pt" viewBox="0 -30 495.90988 495" width="495pt" xmlns="http://www.w3.org/2000/svg"><path d="m103.921875 331.367188c5.273437.742187 10.59375 1.117187 15.921875 1.121093h252c15.089844.042969 30.042969-2.894531 44-8.640625 47.363281-19.433594 76.398438-67.605468 71.457031-118.5625-4.9375-50.957031-42.683593-92.660156-92.898437-102.636718-9.328125-57.609376-61.332032-98.402344-119.507813-93.738282-58.175781 4.660156-103.019531 53.21875-103.050781 111.578125v.800781c-39.492188-20.671874-87.480469-15.964843-122.195312 11.992188-34.714844 27.957031-49.5507818 73.839844-37.769532 116.828125 11.777344 42.988281 47.925782 74.902344 92.042969 81.257813zm0 0" fill="#57a4ff"/><g fill="#004fac"><path d="m371.84375 340.488281h-252c-5.695312-.003906-11.382812-.402343-17.023438-1.191406-45.78125-6.621094-83.675781-38.96875-97.410156-83.136719-13.730468-44.171875-.855468-92.300781 33.097656-123.714844 33.957032-31.410156 82.941407-40.511718 125.910157-23.386718 5.636719-59.070313 53.601562-105.152344 112.847656-108.421875s111.988281 37.257812 124.089844 95.347656c52.175781 12.773437 90.203125 57.675781 94.207031 111.242187 4.007812 53.566407-26.914062 103.628907-76.609375 124.023438-14.9375 6.160156-30.949219 9.300781-47.109375 9.238281zm-252-224c-54.609375-.0625-99.964844 42.117188-103.859375 96.585938-3.890625 54.46875 35.003906 102.671875 89.066406 110.375 4.902344.6875 9.84375 1.035156 14.792969 1.039062h252c14.039062.0625 27.949219-2.65625 40.933594-8 44.105468-18.085937 71.148437-62.9375 66.558594-110.386719-4.59375-47.449218-39.738282-86.28125-86.492188-95.574218-3.28125-.652344-5.808594-3.277344-6.335938-6.582032-8.660156-53.496093-56.945312-91.378906-110.964843-87.050781-54.019531 4.324219-95.664063 49.402344-95.699219 103.59375v.800781c0 2.800782-1.46875 5.398438-3.863281 6.84375-2.398438 1.449219-5.378907 1.539063-7.859375.234376-14.898438-7.796876-31.460938-11.871094-48.277344-11.878907zm0 0"/><path d="m423.84375 372.488281h-352c-4.417969 0-8-3.582031-8-8s3.582031-8 8-8h352c4.417969 0 8 3.582031 8 8s-3.582031 8-8 8zm0 0"/><path d="m295.84375 404.488281h-224c-4.417969 0-8-3.582031-8-8s3.582031-8 8-8h224c4.417969 0 8 3.582031 8 8s-3.582031 8-8 8zm0 0"/><path d="m191.84375 436.488281h-120c-4.417969 0-8-3.582031-8-8s3.582031-8 8-8h120c4.417969 0 8 3.582031 8 8s-3.582031 8-8 8zm0 0"/></g></svg>