<svg height="449pt" viewBox="0 -59 449.21268 449" width="449pt" xmlns="http://www.w3.org/2000/svg"><g fill="#1ae5be"><path d="m313.699219 184.417969h-313.699219v20h313.644531c10.917969.03125 21.378907 4.398437 29.082031 12.140625 12.152344 12.179687 12.152344 31.898437 0 44.074218-8.960937 8.945313-23.472656 8.945313-32.433593 0-6.375-6.386718-6.375-16.726562 0-23.117187l-14.140625-14.140625c-14.171875 14.203125-14.171875 37.195312 0 51.398438 16.777344 16.738281 43.9375 16.738281 60.714844 0 19.949218-19.996094 19.949218-52.363282 0-72.359376-11.433594-11.484374-26.960938-17.957031-43.167969-17.996093zm0 0"/><path d="m156.929688 244.507812h-96.929688v20h96.871094c8.128906.023438 15.910156 3.273438 21.640625 9.035157 8.84375 8.859375 8.84375 23.210937 0 32.074219-6.304688 6.300781-16.523438 6.300781-22.828125 0-4.253906-4.265626-4.253906-11.171876 0-15.4375l-14.144532-14.144532c-12.054687 12.082032-12.054687 31.640625 0 43.722656 14.117188 14.113282 37 14.113282 51.117188 0 16.640625-16.679687 16.640625-43.679687 0-60.359374-9.464844-9.503907-22.316406-14.863282-35.726562-14.890626zm0 0"/><path d="m298.03125 71.035156c16.640625-16.679687 16.640625-43.683594 0-60.359375-14.125-14.09375-36.988281-14.09375-51.113281 0-12.054688 12.078125-12.054688 31.640625 0 43.71875l14.140625-14.140625c-4.253906-4.265625-4.253906-11.171875 0-15.4375 6.308594-6.292968 16.523437-6.292968 22.832031 0 8.84375 8.863282 8.84375 23.210938 0 32.074219-5.714844 5.75-13.476563 9-21.582031 9.035156h-158.308594v20h158.363281c13.394531-.042969 26.222657-5.398437 35.667969-14.890625zm0 0"/><path d="m368.332031 48.195312c-15.105469 15.109376-15.105469 39.601563 0 54.710938l14.144531-14.144531c-7.296874-7.296875-7.296874-19.125 0-26.421875 10.101563-10.078125 26.460938-10.078125 36.5625 0 13.578126 13.609375 13.578126 35.636718 0 49.242187-8.53125 8.582031-20.125 13.429688-32.226562 13.480469h-338.429688v20h338.484376c17.390624-.054688 34.046874-7.011719 46.316406-19.335938 21.371094-21.421874 21.371094-56.105468 0-77.527343-17.921875-17.878907-46.929688-17.882813-64.851563-.003907zm0 0"/></g></svg>